<mxfile host="Electron" agent="Mozilla/5.0 (Windows NT 10.0; Win64; x64) AppleWebKit/537.36 (KHTML, like Gecko) draw.io/28.0.6 Chrome/138.0.7204.100 Electron/37.2.3 Safari/537.36" version="28.0.6">
  <diagram name="PÃ¡gina-1" id="D5XtiBa7lzC3qq5Ssxzy">
    <mxGraphModel dx="2160" dy="873" grid="1" gridSize="10" guides="1" tooltips="1" connect="1" arrows="1" fold="1" page="1" pageScale="1" pageWidth="850" pageHeight="1100" math="0" shadow="0">
      <root>
        <mxCell id="0" />
        <mxCell id="1" parent="0" />
        <mxCell id="673by9J2v8Ql5m8TfZlL-41" style="edgeStyle=orthogonalEdgeStyle;rounded=0;orthogonalLoop=1;jettySize=auto;html=1;exitX=0.5;exitY=1;exitDx=0;exitDy=0;entryX=0.5;entryY=0;entryDx=0;entryDy=0;" edge="1" parent="1" source="673by9J2v8Ql5m8TfZlL-1" target="673by9J2v8Ql5m8TfZlL-40">
          <mxGeometry relative="1" as="geometry" />
        </mxCell>
        <mxCell id="673by9J2v8Ql5m8TfZlL-1" value="Tee" style="ellipse;whiteSpace=wrap;html=1;aspect=fixed;fillColor=#330000;" vertex="1" parent="1">
          <mxGeometry x="120" y="70" width="40" height="40" as="geometry" />
        </mxCell>
        <mxCell id="673by9J2v8Ql5m8TfZlL-25" style="edgeStyle=orthogonalEdgeStyle;rounded=0;orthogonalLoop=1;jettySize=auto;html=1;exitX=0;exitY=0.5;exitDx=0;exitDy=0;entryX=0.5;entryY=0;entryDx=0;entryDy=0;" edge="1" parent="1" source="673by9J2v8Ql5m8TfZlL-3" target="673by9J2v8Ql5m8TfZlL-54">
          <mxGeometry relative="1" as="geometry">
            <mxPoint x="140" y="760" as="targetPoint" />
            <Array as="points">
              <mxPoint y="270" />
              <mxPoint y="730" />
              <mxPoint x="140" y="730" />
            </Array>
          </mxGeometry>
        </mxCell>
        <mxCell id="673by9J2v8Ql5m8TfZlL-47" style="edgeStyle=orthogonalEdgeStyle;rounded=0;orthogonalLoop=1;jettySize=auto;html=1;exitX=0.5;exitY=1;exitDx=0;exitDy=0;entryX=0.5;entryY=0;entryDx=0;entryDy=0;" edge="1" parent="1" source="673by9J2v8Ql5m8TfZlL-3" target="673by9J2v8Ql5m8TfZlL-43">
          <mxGeometry relative="1" as="geometry" />
        </mxCell>
        <mxCell id="673by9J2v8Ql5m8TfZlL-3" value="filled &amp;lt; 6?" style="rhombus;whiteSpace=wrap;html=1;" vertex="1" parent="1">
          <mxGeometry x="100" y="230" width="80" height="80" as="geometry" />
        </mxCell>
        <mxCell id="673by9J2v8Ql5m8TfZlL-26" style="edgeStyle=orthogonalEdgeStyle;rounded=0;orthogonalLoop=1;jettySize=auto;html=1;exitX=1;exitY=0.5;exitDx=0;exitDy=0;entryX=1;entryY=0.5;entryDx=0;entryDy=0;" edge="1" parent="1" source="673by9J2v8Ql5m8TfZlL-5" target="673by9J2v8Ql5m8TfZlL-7">
          <mxGeometry relative="1" as="geometry" />
        </mxCell>
        <mxCell id="673by9J2v8Ql5m8TfZlL-52" style="edgeStyle=orthogonalEdgeStyle;rounded=0;orthogonalLoop=1;jettySize=auto;html=1;exitX=0.5;exitY=1;exitDx=0;exitDy=0;entryX=0.5;entryY=0;entryDx=0;entryDy=0;" edge="1" parent="1" source="673by9J2v8Ql5m8TfZlL-5" target="673by9J2v8Ql5m8TfZlL-51">
          <mxGeometry relative="1" as="geometry" />
        </mxCell>
        <mxCell id="673by9J2v8Ql5m8TfZlL-5" value="does numbers contain candidate?" style="rhombus;whiteSpace=wrap;html=1;" vertex="1" parent="1">
          <mxGeometry x="40" y="440" width="200" height="110" as="geometry" />
        </mxCell>
        <mxCell id="673by9J2v8Ql5m8TfZlL-28" style="edgeStyle=orthogonalEdgeStyle;rounded=0;orthogonalLoop=1;jettySize=auto;html=1;exitX=0.5;exitY=1;exitDx=0;exitDy=0;entryX=1;entryY=0.5;entryDx=0;entryDy=0;" edge="1" parent="1" source="673by9J2v8Ql5m8TfZlL-7" target="673by9J2v8Ql5m8TfZlL-3">
          <mxGeometry relative="1" as="geometry">
            <Array as="points">
              <mxPoint x="140" y="710" />
              <mxPoint x="320" y="710" />
              <mxPoint x="320" y="270" />
            </Array>
          </mxGeometry>
        </mxCell>
        <mxCell id="673by9J2v8Ql5m8TfZlL-7" value="" style="rhombus;whiteSpace=wrap;html=1;" vertex="1" parent="1">
          <mxGeometry x="130" y="680" width="20" height="20" as="geometry" />
        </mxCell>
        <mxCell id="673by9J2v8Ql5m8TfZlL-10" style="edgeStyle=orthogonalEdgeStyle;rounded=0;orthogonalLoop=1;jettySize=auto;html=1;exitX=0.5;exitY=1;exitDx=0;exitDy=0;" edge="1" parent="1">
          <mxGeometry relative="1" as="geometry">
            <mxPoint x="140" y="960" as="sourcePoint" />
            <mxPoint x="140" y="960" as="targetPoint" />
          </mxGeometry>
        </mxCell>
        <mxCell id="673by9J2v8Ql5m8TfZlL-13" value="Algorithm: Generate 6 unique numbers from 1 to 45. No duplicates allowed." style="shape=callout;whiteSpace=wrap;html=1;perimeter=calloutPerimeter;" vertex="1" parent="1">
          <mxGeometry x="40" width="230" height="80" as="geometry" />
        </mxCell>
        <mxCell id="673by9J2v8Ql5m8TfZlL-19" value="Yes" style="text;html=1;align=center;verticalAlign=middle;whiteSpace=wrap;rounded=0;" vertex="1" parent="1">
          <mxGeometry x="135" y="310" width="55" height="30" as="geometry" />
        </mxCell>
        <mxCell id="673by9J2v8Ql5m8TfZlL-22" value="No" style="text;html=1;align=center;verticalAlign=middle;whiteSpace=wrap;rounded=0;" vertex="1" parent="1">
          <mxGeometry x="152" y="552" width="60" height="30" as="geometry" />
        </mxCell>
        <mxCell id="673by9J2v8Ql5m8TfZlL-24" value="No" style="text;html=1;align=center;verticalAlign=middle;whiteSpace=wrap;rounded=0;" vertex="1" parent="1">
          <mxGeometry x="20" y="270" width="60" height="30" as="geometry" />
        </mxCell>
        <mxCell id="673by9J2v8Ql5m8TfZlL-27" value="Yes" style="text;html=1;align=center;verticalAlign=middle;whiteSpace=wrap;rounded=0;" vertex="1" parent="1">
          <mxGeometry x="230" y="472" width="60" height="30" as="geometry" />
        </mxCell>
        <mxCell id="673by9J2v8Ql5m8TfZlL-31" value="Continue" style="text;html=1;align=center;verticalAlign=middle;whiteSpace=wrap;rounded=0;" vertex="1" parent="1">
          <mxGeometry x="160" y="730" width="60" height="30" as="geometry" />
        </mxCell>
        <mxCell id="673by9J2v8Ql5m8TfZlL-35" value="" style="group" vertex="1" connectable="0" parent="1">
          <mxGeometry x="100" y="980" width="80" height="80" as="geometry" />
        </mxCell>
        <mxCell id="673by9J2v8Ql5m8TfZlL-11" value="" style="ellipse;whiteSpace=wrap;html=1;aspect=fixed;fillColor=#330000;" vertex="1" parent="673by9J2v8Ql5m8TfZlL-35">
          <mxGeometry x="20" y="20" width="40" height="40" as="geometry" />
        </mxCell>
        <mxCell id="673by9J2v8Ql5m8TfZlL-12" value="" style="ellipse;whiteSpace=wrap;html=1;aspect=fixed;fillColor=none;" vertex="1" parent="673by9J2v8Ql5m8TfZlL-35">
          <mxGeometry width="80" height="80" as="geometry" />
        </mxCell>
        <mxCell id="673by9J2v8Ql5m8TfZlL-33" style="edgeStyle=orthogonalEdgeStyle;rounded=0;orthogonalLoop=1;jettySize=auto;html=1;exitX=0.5;exitY=1;exitDx=0;exitDy=0;" edge="1" parent="673by9J2v8Ql5m8TfZlL-35" source="673by9J2v8Ql5m8TfZlL-12" target="673by9J2v8Ql5m8TfZlL-12">
          <mxGeometry relative="1" as="geometry" />
        </mxCell>
        <mxCell id="673by9J2v8Ql5m8TfZlL-39" value="Start" style="text;html=1;align=center;verticalAlign=middle;whiteSpace=wrap;rounded=0;" vertex="1" parent="1">
          <mxGeometry x="160" y="80" width="60" height="30" as="geometry" />
        </mxCell>
        <mxCell id="673by9J2v8Ql5m8TfZlL-42" style="edgeStyle=orthogonalEdgeStyle;rounded=0;orthogonalLoop=1;jettySize=auto;html=1;exitX=0.5;exitY=1;exitDx=0;exitDy=0;entryX=0.5;entryY=0;entryDx=0;entryDy=0;" edge="1" parent="1" source="673by9J2v8Ql5m8TfZlL-40" target="673by9J2v8Ql5m8TfZlL-3">
          <mxGeometry relative="1" as="geometry" />
        </mxCell>
        <mxCell id="673by9J2v8Ql5m8TfZlL-40" value="Initialize:&lt;div&gt;int[] numbers = new int[6];&lt;/div&gt;&lt;div&gt;int filled = 0&amp;nbsp;&amp;nbsp;&lt;/div&gt;" style="rounded=0;whiteSpace=wrap;html=1;" vertex="1" parent="1">
          <mxGeometry x="80" y="140" width="120" height="60" as="geometry" />
        </mxCell>
        <mxCell id="673by9J2v8Ql5m8TfZlL-48" style="edgeStyle=orthogonalEdgeStyle;rounded=0;orthogonalLoop=1;jettySize=auto;html=1;exitX=0.5;exitY=1;exitDx=0;exitDy=0;entryX=0.5;entryY=0;entryDx=0;entryDy=0;" edge="1" parent="1" source="673by9J2v8Ql5m8TfZlL-43" target="673by9J2v8Ql5m8TfZlL-5">
          <mxGeometry relative="1" as="geometry" />
        </mxCell>
        <mxCell id="673by9J2v8Ql5m8TfZlL-43" value="candidate = random(1..45)" style="shape=parallelogram;perimeter=parallelogramPerimeter;whiteSpace=wrap;html=1;fixedSize=1;" vertex="1" parent="1">
          <mxGeometry x="80" y="350" width="120" height="60" as="geometry" />
        </mxCell>
        <mxCell id="673by9J2v8Ql5m8TfZlL-53" style="edgeStyle=orthogonalEdgeStyle;rounded=0;orthogonalLoop=1;jettySize=auto;html=1;exitX=0.5;exitY=1;exitDx=0;exitDy=0;entryX=0.5;entryY=0;entryDx=0;entryDy=0;" edge="1" parent="1" source="673by9J2v8Ql5m8TfZlL-51" target="673by9J2v8Ql5m8TfZlL-7">
          <mxGeometry relative="1" as="geometry" />
        </mxCell>
        <mxCell id="673by9J2v8Ql5m8TfZlL-51" value="numbers[filled] = candidate;&lt;div&gt;filled++&lt;/div&gt;" style="rounded=0;whiteSpace=wrap;html=1;" vertex="1" parent="1">
          <mxGeometry x="80" y="590" width="120" height="60" as="geometry" />
        </mxCell>
        <mxCell id="673by9J2v8Ql5m8TfZlL-57" style="edgeStyle=orthogonalEdgeStyle;rounded=0;orthogonalLoop=1;jettySize=auto;html=1;exitX=0.5;exitY=1;exitDx=0;exitDy=0;entryX=0.5;entryY=0;entryDx=0;entryDy=0;" edge="1" parent="1" source="673by9J2v8Ql5m8TfZlL-54" target="673by9J2v8Ql5m8TfZlL-58">
          <mxGeometry relative="1" as="geometry">
            <mxPoint x="140" y="880" as="targetPoint" />
          </mxGeometry>
        </mxCell>
        <mxCell id="673by9J2v8Ql5m8TfZlL-54" value="Sort:&lt;div&gt;Arrays.sort(numbers)&lt;/div&gt;" style="rounded=0;whiteSpace=wrap;html=1;" vertex="1" parent="1">
          <mxGeometry x="80" y="780" width="120" height="60" as="geometry" />
        </mxCell>
        <mxCell id="673by9J2v8Ql5m8TfZlL-59" style="edgeStyle=orthogonalEdgeStyle;rounded=0;orthogonalLoop=1;jettySize=auto;html=1;exitX=0.5;exitY=1;exitDx=0;exitDy=0;entryX=0.5;entryY=0;entryDx=0;entryDy=0;" edge="1" parent="1" source="673by9J2v8Ql5m8TfZlL-58" target="673by9J2v8Ql5m8TfZlL-12">
          <mxGeometry relative="1" as="geometry" />
        </mxCell>
        <mxCell id="673by9J2v8Ql5m8TfZlL-58" value="Print:&lt;div&gt;Arrays.toString(numbers)&lt;/div&gt;" style="shape=parallelogram;perimeter=parallelogramPerimeter;whiteSpace=wrap;html=1;fixedSize=1;" vertex="1" parent="1">
          <mxGeometry x="60" y="900" width="160" height="60" as="geometry" />
        </mxCell>
        <mxCell id="673by9J2v8Ql5m8TfZlL-60" value="End" style="text;html=1;align=center;verticalAlign=middle;whiteSpace=wrap;rounded=0;" vertex="1" parent="1">
          <mxGeometry x="200" y="1005" width="60" height="30" as="geometry" />
        </mxCell>
      </root>
    </mxGraphModel>
  </diagram>
</mxfile>
